:SAMPLES-PER-SECOND 30
:FULLY-SPECIFIED
:DEGREES
366
root  53.5321 39.0497 -28.1266 -7.16135 -44.4335 7.77313
RightUpLeg  1.12935 -18.7114 1.12911
RightLeg  18.2293 -13.6435 1.07715
RightFoot  -19.3019 -0.76966 -9.16247
RightToes  0.00048216 0.542163 -0.142577
Spine  31.3276 3.20041 3.77824
Spine1  10.2506 6.8925 -10.1153
HEad  -23.0727 -22.9109 19.7149
LeftShoulder1  9.82793 -16.8373 -41.9299
LeftArm  -21.5759 -6.57343 -23.2969
LeftForeArm  1.16772 -62.8872 -22.7579
LeftHand  -0.25398 0.0180481 5.50724
RightShoulder  4.84037 12.4454 24.1803
RightArm  19.5628 51.5125 58.2285
RightForeArm  -35.8943 31.5733 8.59158
RightHand  -0.15869 -3.68863 -9.3354
LeftUpLeg  -20.7216 3.87598 -8.84461
LeftLeg  8.73855 2.03007 -2.12742
LeftFoot  1.97211 0.950958 -8.21586
LeftToes  1.06244e-005 4.65854e-005 -8.18505e-006
367
root  52.3381 38.8776 -27.7429 -7.67848 -46.3391 7.7644
RightUpLeg  3.20006 -21.8804 1.12726
RightLeg  19.4277 -8.74551 0.864528
RightFoot  -20.017 -0.813985 -8.94553
RightToes  0.00048216 0.542163 -0.142577
Spine  30.3617 3.61703 3.58943
Spine1  10.9103 7.5833 -10.6489
HEad  -22.1254 -22.3257 19.5553
LeftShoulder1  9.7696 -16.5867 -42.2226
LeftArm  -21.3716 -5.08771 -23.1463
LeftForeArm  2.69355 -64.3375 -24.3045
LeftHand  -0.25398 0.0180481 5.50724
RightShoulder  4.86361 12.4398 24.3446
RightArm  20.1911 50.6988 58.6037
RightForeArm  -34.9341 31.3594 8.4999
RightHand  -0.0876988 -4.43331 -7.60903
LeftUpLeg  -19.3801 3.54019 -9.36346
LeftLeg  8.4443 2.62446 -2.48172
LeftFoot  3.05372 0.885246 -7.22378
LeftToes  1.06244e-005 4.65854e-005 -8.18505e-006
368
root  51.1512 38.7107 -27.362 -8.383 -49.0934 8.05003
RightUpLeg  4.25339 -27.396 0.445413
RightLeg  22.9086 -0.849535 0.320605
RightFoot  -20.4034 -0.743812 -7.69832
RightToes  0.00048216 0.542163 -0.142577
Spine  29.8361 4.33516 2.92347
Spine1  11.2653 8.55101 -11.2743
HEad  -21.3535 -21.5 19.7686
LeftShoulder1  9.65749 -16.2742 -42.4123
LeftArm  -21.4617 -3.42102 -22.9087
LeftForeArm  4.72534 -65.9398 -26.2268
LeftHand  -0.25398 0.0180481 5.50724
RightShoulder  4.94238 12.4298 24.8828
RightArm  21.1999 50.0612 59.0766
RightForeArm  -34.1175 31.4438 8.49464
RightHand  -0.104636 -4.0776 -7.07521
LeftUpLeg  -18.7827 4.69901 -10.1029
LeftLeg  10.6926 0.55703 -1.75181
LeftFoot  5.14392 0.246004 -1.93449
LeftToes  1.06244e-005 4.65854e-005 -8.18505e-006
369
root  50.02 38.6156 -27.0172 -9.16098 -52.1449 8.57436
RightUpLeg  2.75338 -27.1969 -0.226938
RightLeg  30.0561 2.01678 0.911308
RightFoot  -17.8096 -0.365258 -4.06802
RightToes  0.00048216 0.542163 -0.142577
Spine  29.9971 5.02945 2.01007
Spine1  11.1449 9.36136 -11.8994
HEad  -21.0533 -20.3204 19.9499
LeftShoulder1  9.58265 -16.0131 -42.664
LeftArm  -21.8218 -1.69731 -22.4857
LeftForeArm  6.82057 -67.4875 -28.3847
LeftHand  -0.25398 0.0180481 5.50724
RightShoulder  5.03391 12.4716 25.3974
RightArm  22.268 49.7287 59.9808
RightForeArm  -33.0714 31.6175 8.50512
RightHand  -0.126512 -3.57493 -6.67468
LeftUpLeg  -18.9886 7.07188 -10.4087
LeftLeg  14.3902 -1.58156 -0.743528
LeftFoot  5.57715 -0.546883 3.51464
LeftToes  1.06244e-005 4.65854e-005 -8.18505e-006
370
root  48.9736 38.6207 -26.7232 -9.75816 -54.4483 8.983
RightUpLeg  -1.67297 -26.2952 -1.22957
RightLeg  40.8273 3.61753 3.08912
RightFoot  -9.19452 -0.114446 0.973048
RightToes  0.00048216 0.542163 -0.142577
Spine  30.7998 5.19535 1.28108
Spine1  10.8943 9.52293 -12.2804
HEad  -21.1174 -18.958 19.3934
LeftShoulder1  9.63601 -15.9732 -43.0108
LeftArm  -22.5346 -0.0531749 -22.1064
LeftForeArm  8.49721 -68.7624 -30.4762
LeftHand  -0.25398 0.0180481 5.50724
RightShoulder  5.03078 12.4924 25.3338
RightArm  23.2747 49.8433 61.5102
RightForeArm  -31.7005 31.6817 8.47257
RightHand  -0.106673 -3.66655 -5.57584
LeftUpLeg  -19.1984 8.75313 -9.5498
LeftLeg  18.1349 -1.24041 -0.0561946
LeftFoot  3.23308 -0.592793 4.40165
LeftToes  1.06244e-005 4.65854e-005 -8.18505e-006
371
root  48.0368 38.6319 -26.4886 -10.4552 -55.8215 9.74129
RightUpLeg  -8.26884 -26.2574 -2.59568
RightLeg  52.3633 3.99493 5.10081
RightFoot  3.10254 -0.652911 5.42523
RightToes  0.00048216 0.542163 -0.142577
Spine  31.8902 4.95667 0.445027
Spine1  10.856 9.17841 -12.5036
HEad  -21.1705 -17.8746 18.1233
LeftShoulder1  9.74956 -16.1123 -43.2211
LeftArm  -23.421 1.29997 -22.2109
LeftForeArm  9.79314 -69.7131 -32.2618
LeftHand  -0.25398 0.0180481 5.50724
RightShoulder  4.9308 12.423 24.8207
RightArm  24.1876 50.4365 63.0813
RightForeArm  -30.4918 31.8285 8.46759
RightHand  -0.081912 -3.94123 -4.5319
LeftUpLeg  -18.983 9.98289 -8.59178
LeftLeg  20.8835 -0.513724 0.106852
LeftFoot  0.0797252 -0.20373 2.03697
LeftToes  1.06244e-005 4.65854e-005 -8.18505e-006
372
root  47.1631 38.6301 -26.3139 -11.3789 -56.8997 11.1032
RightUpLeg  -15.3154 -26.1425 -3.84235
RightLeg  61.1415 2.47009 4.26336
RightFoot  10.7527 -1.29064 7.08499
RightToes  0.00048216 0.542163 -0.142577
Spine  32.8911 4.80882 -0.679558
Spine1  10.9696 8.83146 -12.6993
HEad  -21.1969 -17.3642 16.9257
LeftShoulder1  9.81336 -16.2184 -43.2723
LeftArm  -24.0396 2.01371 -22.815
LeftForeArm  11.0454 -70.433 -33.7293
LeftHand  -0.25398 0.0180481 5.50724
RightShoulder  4.83134 12.3031 24.4083
RightArm  24.6958 51.3689 63.8565
RightForeArm  -29.8207 32.4072 8.6033
RightHand  -0.08379 -3.90075 -4.52946
LeftUpLeg  -18.426 11.8775 -8.33252
LeftLeg  22.2323 -1.32639 -0.260356
LeftFoot  -1.93656 -0.0446091 0.724287
LeftToes  1.06244e-005 4.65854e-005 -8.18505e-006
373
root  46.233 38.7727 -26.1622 -11.4321 -58.0798 11.5988
RightUpLeg  -21.6109 -26.1737 -4.07706
RightLeg  65.4811 0.464281 0.53948
RightFoot  10.923 -0.998881 5.40376
RightToes  0.00048216 0.542163 -0.142577
Spine  33.6757 4.72714 -0.994714
Spine1  10.9978 8.63758 -12.6274
HEad  -21.5114 -17.2195 16.319
LeftShoulder1  9.8488 -16.2208 -43.4324
LeftArm  -24.1673 1.95985 -23.4932
LeftForeArm  12.3453 -71.0041 -34.9508
LeftHand  -0.25398 0.0180481 5.50724
RightShoulder  4.77168 12.1794 24.2627
RightArm  24.5172 52.4198 63.7258
RightForeArm  -29.6345 33.3267 8.85691
RightHand  -0.0866111 -3.9835 -5.07542
LeftUpLeg  -17.2333 13.8628 -7.51413
LeftLeg  22.0912 -2.45089 -0.752816
LeftFoot  -2.9662 -0.0398211 0.789347
LeftToes  1.06244e-005 4.65854e-005 -8.18505e-006
